<svg width="68" height="8" viewBox="0 0 68 8" fill="none" xmlns="http://www.w3.org/2000/svg">
<path d="M38 4C38 6.20914 36.2091 8 34 8C31.7909 8 30 6.20914 30 4C30 1.79086 31.7909 0 34 0C36.2091 0 38 1.79086 38 4Z" fill="#97D173"/>
<path d="M23 4C23 6.20914 21.2091 8 19 8C16.7909 8 15 6.20914 15 4C15 1.79086 16.7909 0 19 0C21.2091 0 23 1.79086 23 4Z" fill="#E0E0E0"/>
<path d="M8 4C8 6.20914 6.20914 8 4 8C1.79086 8 0 6.20914 0 4C0 1.79086 1.79086 0 4 0C6.20914 0 8 1.79086 8 4Z" fill="#E0E0E0"/>
<path d="M53 4C53 6.20914 51.2091 8 49 8C46.7909 8 45 6.20914 45 4C45 1.79086 46.7909 0 49 0C51.2091 0 53 1.79086 53 4Z" fill="#E0E0E0"/>
<path d="M68 4C68 6.20914 66.2091 8 64 8C61.7909 8 60 6.20914 60 4C60 1.79086 61.7909 0 64 0C66.2091 0 68 1.79086 68 4Z" fill="#E0E0E0"/>
</svg>
