<svg width="9" height="9" viewBox="0 0 9 9" fill="none" xmlns="http://www.w3.org/2000/svg">
<path d="M8.43581 8.99999C3.63713 9.00674 -0.00505723 5.32124 5.27101e-06 0.564187C5.27101e-06 0.253125 0.252005 0 0.562505 0H2.0475C2.32594 0 2.56275 0.20475 2.60382 0.480375C2.70175 1.14134 2.89402 1.78484 3.17475 2.39119L3.23269 2.51606C3.27161 2.60009 3.27998 2.69507 3.25636 2.78462C3.23274 2.87416 3.17862 2.95265 3.10332 3.00656C2.64319 3.33506 2.46769 3.996 2.826 4.51125C3.27712 5.15999 3.84016 5.72322 4.48875 6.17456C5.00456 6.53231 5.6655 6.35681 5.99344 5.89724C6.04729 5.82172 6.12585 5.76739 6.21552 5.74366C6.3052 5.71993 6.40034 5.7283 6.4845 5.76731L6.60881 5.82468C7.21519 6.10593 7.85869 6.29831 8.51962 6.39618C8.79525 6.43724 9 6.67406 9 6.95306V8.43749C9 8.51141 8.98543 8.5846 8.95713 8.65288C8.92882 8.72116 8.88734 8.7832 8.83505 8.83544C8.78276 8.88768 8.72068 8.9291 8.65237 8.95733C8.58406 8.98557 8.51085 9.00006 8.43694 8.99999H8.43581Z" fill="#FDE38A"/>
</svg>
