<svg width="140" height="81" viewBox="0 0 140 81" fill="none" xmlns="http://www.w3.org/2000/svg">
<path d="M17.907 0L21.9273 12.3734H34.9375L24.4121 20.0206L28.4324 32.394L17.907 24.7468L7.38152 32.394L11.4019 20.0206L0.876431 12.3734H13.8866L17.907 0Z" fill="#FDE38A"/>
<path d="M70 0L74.0204 12.3734H87.0305L76.5051 20.0206L80.5254 32.394L70 24.7468L59.4745 32.394L63.4949 20.0206L52.9694 12.3734H65.9796L70 0Z" fill="#FDE38A"/>
<path d="M122.093 0L126.113 12.3734H139.124L128.598 20.0206L132.618 32.394L122.093 24.7468L111.568 32.394L115.588 20.0206L105.062 12.3734H118.073L122.093 0Z" fill="#FDE38A"/>
<path d="M45.0764 44.4585L49.0968 56.8319H62.107L51.5815 64.4791L55.6019 76.8525L45.0764 69.2053L34.551 76.8525L38.5713 64.4791L28.0459 56.8319H41.056L45.0764 44.4585Z" fill="#FDE38A"/>
<path d="M98.1799 44.4585L102.2 56.8319H115.21L104.685 64.4791L108.705 76.8525L98.1799 69.2053L87.6545 76.8525L91.6748 64.4791L81.1494 56.8319H94.1596L98.1799 44.4585Z" fill="#FDE38A"/>
</svg>
