<svg width="20" height="20" viewBox="0 0 20 20" fill="none" xmlns="http://www.w3.org/2000/svg">
<path fill-rule="evenodd" clip-rule="evenodd" d="M16.2602 2.77936C14.471 0.988031 12.0915 0.00109417 9.55645 0C4.3329 0 0.0815156 4.25111 0.0794184 9.4763C0.0787801 11.1465 0.515079 12.7768 1.34446 14.2141L0 19.1249L5.02386 17.8071C6.40807 18.5621 7.96653 18.9601 9.55262 18.9606H9.55654C14.7795 18.9606 19.0313 14.709 19.0335 9.48368C19.0344 6.9516 18.0494 4.5706 16.2602 2.77936ZM9.55654 17.3601H9.55334C8.13996 17.3596 6.75365 16.9798 5.54432 16.2621L5.25665 16.0915L2.27541 16.8735L3.07114 13.9668L2.88386 13.6687C2.09542 12.4147 1.67891 10.9652 1.67954 9.47675C1.68128 5.13383 5.21479 1.60058 9.55973 1.60058C11.6635 1.60131 13.6413 2.42166 15.1285 3.91064C16.6156 5.39953 17.4341 7.37851 17.4333 9.48323C17.4315 13.8265 13.898 17.3601 9.55654 17.3601ZM13.8771 11.4607C13.6403 11.3422 12.4762 10.7693 12.2591 10.6903C12.0421 10.6114 11.8842 10.5718 11.7264 10.8089C11.5685 11.046 11.1146 11.5793 10.9765 11.7374C10.8384 11.8953 10.7002 11.9152 10.4635 11.7966C10.2266 11.6781 9.46371 11.428 8.5592 10.6212C7.85529 9.99338 7.38006 9.21798 7.24192 8.98082C7.10378 8.74375 7.22715 8.61564 7.34577 8.49757C7.45227 8.39143 7.58257 8.22092 7.70101 8.08269C7.81946 7.94446 7.85885 7.84562 7.93781 7.68761C8.01677 7.52959 7.97729 7.39127 7.91802 7.27283C7.85885 7.1542 7.38525 5.98864 7.18794 5.5145C6.99573 5.05286 6.80051 5.11532 6.65517 5.10802C6.51722 5.10118 6.3592 5.09963 6.20128 5.09963C6.04344 5.09963 5.78695 5.1589 5.56985 5.39597C5.35284 5.63304 4.74111 6.20593 4.74111 7.37149C4.74111 8.53705 5.58955 9.66294 5.70799 9.82105C5.82634 9.97906 7.37778 12.3708 9.75312 13.3966C10.318 13.6406 10.7591 13.7862 11.103 13.8954C11.6704 14.0757 12.1865 14.0502 12.5945 13.9893C13.0495 13.9213 13.9955 13.4164 14.1928 12.8633C14.3901 12.3101 14.3901 11.836 14.3309 11.7372C14.2718 11.6386 14.1139 11.5793 13.8771 11.4607Z" fill="white"/>
</svg>
